<svg xmlns="http://www.w3.org/2000/svg" xmlns:xlink="http://www.w3.org/1999/xlink" width="1366" zoomAndPan="magnify" viewBox="0 0 1024.5 576" height="768" preserveAspectRatio="xMidYMid meet" version="1.0"><defs><clipPath id="519aa35e46"><path d="M 0 173 L 1024 173 L 1024 477 L 0 477 Z M 0 173 " clip-rule="nonzero"/></clipPath><clipPath id="4f5be06db3"><path d="M 0 0.140625 L 1024 0.140625 L 1024 374.359375 L 0 374.359375 Z M 0 0.140625 " clip-rule="nonzero"/></clipPath></defs><g clip-path="url(#519aa35e46)"><path fill="#ffc244" d="M -52.449219 279.535156 C -52.449219 400.667969 -53.390625 387.121094 -44.195312 398.476562 C -12.511719 437.574219 35.804688 462.402344 92.632812 468.792969 C 170.152344 477.503906 242.578125 469.550781 406.59375 434.316406 C 591.894531 394.511719 694 381.164062 801.15625 382.742188 C 926.769531 384.589844 1005.625 409.777344 1065.867188 467.289062 C 1070.964844 472.15625 1075.496094 476.140625 1075.9375 476.140625 C 1077.644531 476.140625 1076.984375 263.921875 1075.265625 260.597656 C 1068.601562 247.695312 1045.527344 224.925781 1025.710938 211.691406 C 986.757812 185.679688 943.117188 175.242188 873.207031 175.234375 C 806.789062 175.222656 751.582031 183.1875 615.390625 212.449219 C 383.492188 262.265625 248.492188 274.703125 128.328125 257.320312 C 56.636719 246.957031 -6.421875 218.101562 -45.898438 177.601562 C -53.140625 170.167969 -52.449219 159.417969 -52.449219 279.535156 " fill-opacity="1" fill-rule="evenodd"/></g><g clip-path="url(#4f5be06db3)"><path fill="#ffc244" d="M -209.09375 -171.367188 L 1153.089844 -171.367188 L 1153.089844 374.359375 L -209.09375 374.359375 Z M -209.09375 -171.367188 " fill-opacity="1" fill-rule="nonzero"/></g></svg>