<svg xmlns="http://www.w3.org/2000/svg" xmlns:xlink="http://www.w3.org/1999/xlink" width="1366" zoomAndPan="magnify" viewBox="0 0 1024.5 576" height="768" preserveAspectRatio="xMidYMid meet" version="1.0"><defs><clipPath id="7e13489298"><path d="M 0 204 L 1024 204 L 1024 548 L 0 548 Z M 0 204 " clip-rule="nonzero"/></clipPath><clipPath id="7831aff833"><path d="M 0 0.140625 L 1024 0.140625 L 1024 415 L 0 415 Z M 0 0.140625 " clip-rule="nonzero"/></clipPath></defs><g clip-path="url(#7e13489298)"><path fill="#ffc244" d="M -153.46875 324.660156 C -153.46875 462.097656 -154.535156 446.730469 -144.101562 459.613281 C -108.152344 503.972656 -53.335938 532.144531 11.144531 539.394531 C 99.097656 549.28125 181.273438 540.257812 367.367188 500.277344 C 577.613281 455.113281 693.460938 439.96875 815.042969 441.761719 C 957.5625 443.855469 1047.035156 472.433594 1115.382812 537.6875 C 1121.167969 543.210938 1126.3125 547.730469 1126.8125 547.730469 C 1128.75 547.730469 1128 306.949219 1126.046875 303.175781 C 1118.488281 288.535156 1092.308594 262.703125 1069.824219 247.6875 C 1025.628906 218.171875 976.109375 206.332031 896.792969 206.320312 C 821.429688 206.304688 758.796875 215.347656 604.269531 248.542969 C 341.15625 305.066406 187.984375 319.179688 51.644531 299.457031 C -29.699219 287.699219 -101.246094 254.957031 -146.035156 209.007812 C -154.253906 200.574219 -153.46875 188.375 -153.46875 324.660156 " fill-opacity="1" fill-rule="evenodd"/></g><g clip-path="url(#7831aff833)"><path fill="#ffc244" d="M -84.832031 132.449219 C -84.832031 306.460938 -86.183594 287.003906 -72.972656 303.316406 C -27.460938 359.480469 41.945312 395.148438 123.582031 404.328125 C 234.941406 416.84375 338.984375 405.417969 574.597656 354.800781 C 840.792969 297.621094 987.46875 278.445312 1141.402344 280.710938 C 1321.847656 283.367188 1435.128906 319.550781 1521.667969 402.167969 C 1528.992188 409.160156 1535.503906 414.882812 1536.136719 414.882812 C 1538.589844 414.882812 1537.640625 110.023438 1535.171875 105.25 C 1525.597656 86.714844 1492.453125 54.003906 1463.984375 34.996094 C 1408.027344 -2.375 1345.332031 -17.367188 1244.910156 -17.382812 C 1149.492188 -17.398438 1070.191406 -5.953125 874.542969 36.078125 C 541.414062 107.644531 347.480469 125.511719 174.859375 100.542969 C 71.871094 85.652344 -18.714844 44.199219 -75.421875 -13.980469 C -85.824219 -24.65625 -84.832031 -40.101562 -84.832031 132.449219 " fill-opacity="1" fill-rule="evenodd"/></g></svg>